<svg width="106" height="40" viewBox="0 0 106 40" fill="none" xmlns="http://www.w3.org/2000/svg">
<g clip-path="url(#clip0)">
<path d="M14.8541 19.8408C14.8541 22.4933 12.7321 24.6153 10.0796 24.6153C7.42703 24.6153 5.30502 22.4933 5.30502 19.8408C5.30502 17.1883 7.42703 15.0663 10.0796 15.0663H14.8541V19.8408ZM20.1591 0.212158H14.8541V9.86733C13.0504 9.86733 11.2467 9.86733 10.0796 9.86733C4.56231 9.86733 0.106079 14.3236 0.106079 19.8408C0.106079 25.358 4.56231 29.8143 10.0796 29.8143C15.5968 29.8143 20.053 25.358 20.053 19.8408C20.053 17.0822 20.053 9.86733 20.053 9.86733L20.1591 0.212158Z" fill="#003B56"/>
<path d="M72.8912 24.6154C75.5438 24.6154 77.6658 22.4934 77.6658 19.8409C77.6658 17.1884 75.5438 15.0664 72.8912 15.0664C70.2387 15.0664 68.1167 17.1884 68.1167 19.8409C68.2228 22.4934 70.3448 24.6154 72.8912 24.6154ZM63.0239 19.8409C63.0239 14.3237 67.4801 9.86743 72.9973 9.86743C78.5146 9.86743 82.9708 14.3237 82.9708 19.8409C82.9708 25.3581 78.5146 29.8144 72.9973 29.8144C67.4801 29.8144 63.0239 25.3581 63.0239 19.8409Z" fill="#003B56"/>
<path d="M99.6286 19.8409C99.6286 17.2945 97.5066 15.1725 94.9602 15.1725C92.4138 15.1725 90.2918 17.2945 90.2918 19.8409C90.2918 21.1141 90.2918 29.39 90.2918 29.39C87.6393 29.39 85.0928 29.39 85.0928 29.39C85.0928 29.39 85.0928 22.5995 85.0928 19.8409C85.0928 14.3237 89.5491 9.86743 95.0663 9.86743C100.584 9.86743 105.04 14.3237 105.04 19.8409C105.04 22.5995 105.04 29.39 105.04 29.39C105.04 29.39 102.493 29.39 99.8408 29.39C99.6286 29.39 99.6286 21.1141 99.6286 19.8409Z" fill="#003B56"/>
<path d="M50.8223 16.4456C50.0796 15.9151 50.2918 15.0663 51.565 14.748C53.1565 14.3236 55.9151 14.6419 58.2494 15.7029L60.6897 12.3077C59.6287 11.4589 57.2944 10.2918 53.8992 10.0796C53.8992 10.0796 48.1698 9.33685 45.8356 13.687C45.8356 13.687 43.8196 17.7188 47.8515 20.2652C50.2918 21.7506 54.5358 22.3872 55.9151 23.0239C56.9761 23.6605 56.6578 24.8276 55.0663 25.1459C52.3077 25.7825 48.7003 24.191 47.5332 23.3422L44.9868 26.8435C46.6844 28.1167 48.8064 29.2838 52.2016 29.8143C52.2016 29.8143 57.6127 30.7692 60.5836 27.0557C61.1141 26.4191 63.5544 21.8567 58.6738 19.2042C56.1273 17.8249 52.0955 17.1883 50.8223 16.4456Z" fill="#003B56"/>
<path d="M26.4191 33.2095C26.6313 33.3156 29.0716 35.0132 31.4058 35.0132C37.1353 35.1193 37.4536 29.1777 37.4536 27.7984C36.3926 28.9655 34.1645 29.7082 32.7852 29.7082C27.2679 29.7082 22.9178 25.4642 22.9178 19.9469C22.9178 17.1883 22.9178 10.2917 22.9178 10.2917C22.9178 10.2917 25.4642 10.2917 28.1167 10.2917C28.1167 10.2917 28.1167 18.7798 28.1167 19.9469C28.1167 22.4933 30.2387 24.6154 32.7852 24.6154C35.3316 24.6154 37.4536 22.4933 37.4536 19.9469C37.4536 18.8859 37.4536 10.2917 37.4536 10.2917C40.1061 10.2917 42.6525 10.2917 42.6525 10.2917V19.9469C42.6525 28.5411 43.0769 37.3474 34.695 39.3634C28.435 40.8488 23.9788 36.923 23.6605 36.7108L26.4191 33.2095Z" fill="#003B56"/>
</g>
<defs>
<clipPath id="clip0">
<rect width="105.04" height="40" fill="white"/>
</clipPath>
</defs>
</svg>
