<svg width="20" height="20" viewBox="0 0 20 20" fill="none" xmlns="http://www.w3.org/2000/svg">
<path fill-rule="evenodd" clip-rule="evenodd" d="M15.453 13.6623H15.5745C16.603 13.8315 17.0102 15.2854 16.8602 16.17C16.7428 16.7212 16.4827 17.2253 16.1102 17.6238C15.0173 18.9931 14.5745 19.2084 13.1959 19.2084H6.38161C4.95304 19.2084 4.53875 18.9084 3.52447 17.6238C3.17002 17.2167 2.92337 16.7146 2.81018 16.17C2.68161 15.2546 3.05304 13.8469 4.11018 13.6084C4.21945 13.597 4.32949 13.597 4.43875 13.6084C4.37147 12.9849 4.37147 12.3551 4.43875 11.7315C4.45304 11.6315 4.4959 11.4084 4.56018 11.1238C4.58285 11.039 4.61687 10.8998 4.64518 10.7579C4.67337 10.6167 4.6959 10.4729 4.6959 10.3777C4.7069 10.3392 4.72002 10.3029 4.73199 10.2699C4.75112 10.2171 4.76732 10.1723 4.76732 10.1392C5.05446 8.90824 5.14385 7.63343 5.03161 6.36998C4.99922 6.00293 5.05748 5.63318 5.20047 5.29817C5.34347 4.96317 5.56612 4.67481 5.8459 4.46229C5.91618 4.43049 6.04907 4.38076 6.20348 4.34343C6.32298 4.31453 6.45537 4.29306 6.58161 4.29306H7.11732C7.06893 4.22347 7.03495 4.14352 7.0177 4.05859C7.00045 3.97366 7.00032 3.88574 7.01732 3.80075L7.48161 1.58536C7.53885 1.41437 7.64361 1.26652 7.78163 1.16192C7.91966 1.05732 8.08426 1.00104 8.25304 1.00075H11.4316C11.6012 0.992958 11.7684 1.04619 11.9068 1.15204C12.0451 1.2579 12.1469 1.41035 12.1959 1.58536L12.6673 3.81613C12.6882 3.89736 12.6913 3.98268 12.6764 4.06542C12.6615 4.14816 12.6291 4.22607 12.5816 4.29306H13.403C14.2245 4.29306 14.8959 5.29306 14.8316 6.42383C14.6939 7.78937 14.73 9.16878 14.9388 10.5238C14.9627 10.6175 14.9818 10.7125 14.9959 10.8084C15.0464 11.0099 15.0799 11.2159 15.0959 11.4238C15.1268 11.6013 15.1412 11.7817 15.1388 11.9623V12.0315C15.1462 12.2163 15.2121 12.5018 15.2835 12.8112C15.3489 13.0944 15.4189 13.3977 15.453 13.6623Z" fill="#003B56"/>
<path d="M7.77448 9.03926C8.36796 9.2664 8.99475 9.37586 9.62448 9.36234C10.9388 9.36234 12.4816 8.95464 12.4816 7.82387V5.12387C12.4816 5.02187 12.444 4.92404 12.377 4.85191C12.31 4.77978 12.2192 4.73926 12.1245 4.73926C12.0298 4.73926 11.9389 4.77978 11.8719 4.85191C11.805 4.92404 11.7673 5.02187 11.7673 5.12387V7.82387C11.7673 8.20849 10.8888 8.63926 9.62448 8.63926C8.36019 8.63926 7.48162 8.1931 7.48162 7.81618V5.12387C7.48162 5.02187 7.44399 4.92404 7.37702 4.85191C7.31004 4.77978 7.2192 4.73926 7.12448 4.73926C7.02976 4.73926 6.93892 4.77978 6.87194 4.85191C6.80496 4.92404 6.76733 5.02187 6.76733 5.12387V7.82387C6.76733 8.11618 6.89591 8.67772 7.77448 9.03926Z" fill="#FEFEFE"/>
<path d="M12.4602 13.9777V9.37769H11.7745V13.9777H7.46017V9.37769H6.77445V13.9777H5.36731V14.7161H13.8816V13.9777H12.4602Z" fill="#FEFEFE"/>
</svg>
